<mxfile host="app.diagrams.net" modified="2022-06-04T11:17:44.704Z" agent="5.0 (Macintosh; Intel Mac OS X 10_15_7) AppleWebKit/537.36 (KHTML, like Gecko) Chrome/102.0.0.0 Safari/537.36" etag="UZSkwH4UZyRRZCMp6LDU" version="18.1.3" type="github">
  <diagram id="6Axc7hykUIyaaEEoFMPY" name="Page-1">
    <mxGraphModel dx="2011" dy="1338" grid="1" gridSize="10" guides="1" tooltips="1" connect="1" arrows="1" fold="1" page="1" pageScale="1" pageWidth="850" pageHeight="1100" math="0" shadow="0">
      <root>
        <mxCell id="0" />
        <mxCell id="1" parent="0" />
        <mxCell id="nwidlT_ggzvQzOjhjeut-1" value="" style="ellipse;whiteSpace=wrap;html=1;fillColor=none;" vertex="1" parent="1">
          <mxGeometry x="170" y="40" width="130" height="80" as="geometry" />
        </mxCell>
        <mxCell id="nwidlT_ggzvQzOjhjeut-2" value="Admin" style="shape=umlActor;verticalLabelPosition=bottom;verticalAlign=top;html=1;outlineConnect=0;fillColor=none;" vertex="1" parent="1">
          <mxGeometry x="33" y="40" width="30" height="60" as="geometry" />
        </mxCell>
        <mxCell id="nwidlT_ggzvQzOjhjeut-3" value="" style="ellipse;whiteSpace=wrap;html=1;fillColor=none;" vertex="1" parent="1">
          <mxGeometry x="380" y="40" width="120" height="80" as="geometry" />
        </mxCell>
        <mxCell id="nwidlT_ggzvQzOjhjeut-4" value="" style="ellipse;whiteSpace=wrap;html=1;fillColor=none;" vertex="1" parent="1">
          <mxGeometry x="630" y="40" width="120" height="80" as="geometry" />
        </mxCell>
        <mxCell id="nwidlT_ggzvQzOjhjeut-5" value="Notification&amp;nbsp;&lt;br&gt;service" style="shape=umlActor;verticalLabelPosition=bottom;verticalAlign=top;html=1;outlineConnect=0;fillColor=none;" vertex="1" parent="1">
          <mxGeometry x="838" y="42" width="30" height="60" as="geometry" />
        </mxCell>
        <mxCell id="nwidlT_ggzvQzOjhjeut-6" value="" style="ellipse;whiteSpace=wrap;html=1;fillColor=none;" vertex="1" parent="1">
          <mxGeometry x="180" y="140" width="120" height="80" as="geometry" />
        </mxCell>
        <mxCell id="nwidlT_ggzvQzOjhjeut-7" value="" style="ellipse;whiteSpace=wrap;html=1;fillColor=none;" vertex="1" parent="1">
          <mxGeometry x="180" y="240" width="120" height="80" as="geometry" />
        </mxCell>
        <mxCell id="nwidlT_ggzvQzOjhjeut-8" value="" style="ellipse;whiteSpace=wrap;html=1;fillColor=none;" vertex="1" parent="1">
          <mxGeometry x="180" y="340" width="120" height="80" as="geometry" />
        </mxCell>
        <mxCell id="nwidlT_ggzvQzOjhjeut-9" value="" style="ellipse;whiteSpace=wrap;html=1;fillColor=none;" vertex="1" parent="1">
          <mxGeometry x="180" y="440" width="120" height="80" as="geometry" />
        </mxCell>
        <mxCell id="nwidlT_ggzvQzOjhjeut-10" value="" style="ellipse;whiteSpace=wrap;html=1;fillColor=none;" vertex="1" parent="1">
          <mxGeometry x="180" y="540" width="120" height="80" as="geometry" />
        </mxCell>
        <mxCell id="nwidlT_ggzvQzOjhjeut-11" value="" style="ellipse;whiteSpace=wrap;html=1;fillColor=none;" vertex="1" parent="1">
          <mxGeometry x="180" y="640" width="120" height="80" as="geometry" />
        </mxCell>
        <mxCell id="nwidlT_ggzvQzOjhjeut-12" value="" style="ellipse;whiteSpace=wrap;html=1;fillColor=none;" vertex="1" parent="1">
          <mxGeometry x="180" y="740" width="120" height="80" as="geometry" />
        </mxCell>
        <mxCell id="nwidlT_ggzvQzOjhjeut-13" value="" style="ellipse;whiteSpace=wrap;html=1;fillColor=none;" vertex="1" parent="1">
          <mxGeometry x="180" y="840" width="120" height="80" as="geometry" />
        </mxCell>
        <mxCell id="nwidlT_ggzvQzOjhjeut-14" value="" style="ellipse;whiteSpace=wrap;html=1;fillColor=none;" vertex="1" parent="1">
          <mxGeometry x="180" y="940" width="120" height="80" as="geometry" />
        </mxCell>
        <mxCell id="nwidlT_ggzvQzOjhjeut-15" value="" style="ellipse;whiteSpace=wrap;html=1;fillColor=none;" vertex="1" parent="1">
          <mxGeometry x="180" y="1040" width="120" height="80" as="geometry" />
        </mxCell>
        <mxCell id="nwidlT_ggzvQzOjhjeut-16" value="" style="ellipse;whiteSpace=wrap;html=1;fillColor=none;" vertex="1" parent="1">
          <mxGeometry x="180" y="1140" width="120" height="80" as="geometry" />
        </mxCell>
        <mxCell id="nwidlT_ggzvQzOjhjeut-17" value="" style="ellipse;whiteSpace=wrap;html=1;fillColor=none;" vertex="1" parent="1">
          <mxGeometry x="590" y="470" width="120" height="80" as="geometry" />
        </mxCell>
        <mxCell id="nwidlT_ggzvQzOjhjeut-18" value="" style="ellipse;whiteSpace=wrap;html=1;fillColor=none;" vertex="1" parent="1">
          <mxGeometry x="590" y="570" width="120" height="80" as="geometry" />
        </mxCell>
        <mxCell id="nwidlT_ggzvQzOjhjeut-19" value="" style="ellipse;whiteSpace=wrap;html=1;fillColor=none;" vertex="1" parent="1">
          <mxGeometry x="590" y="680" width="120" height="80" as="geometry" />
        </mxCell>
        <mxCell id="nwidlT_ggzvQzOjhjeut-20" value="" style="ellipse;whiteSpace=wrap;html=1;fillColor=none;" vertex="1" parent="1">
          <mxGeometry x="380" y="940" width="120" height="80" as="geometry" />
        </mxCell>
        <mxCell id="nwidlT_ggzvQzOjhjeut-21" value="Supplier" style="shape=umlActor;verticalLabelPosition=bottom;verticalAlign=top;html=1;outlineConnect=0;fillColor=none;" vertex="1" parent="1">
          <mxGeometry x="838" y="380" width="30" height="60" as="geometry" />
        </mxCell>
        <mxCell id="nwidlT_ggzvQzOjhjeut-22" value="Inventory&lt;br&gt;manager" style="shape=umlActor;verticalLabelPosition=bottom;verticalAlign=top;html=1;outlineConnect=0;fillColor=none;" vertex="1" parent="1">
          <mxGeometry x="89" y="580" width="30" height="60" as="geometry" />
        </mxCell>
        <mxCell id="nwidlT_ggzvQzOjhjeut-24" value="" style="endArrow=none;html=1;rounded=0;" edge="1" parent="1">
          <mxGeometry width="50" height="50" relative="1" as="geometry">
            <mxPoint x="150" y="1240" as="sourcePoint" />
            <mxPoint x="150" y="20" as="targetPoint" />
          </mxGeometry>
        </mxCell>
        <mxCell id="nwidlT_ggzvQzOjhjeut-25" value="" style="endArrow=none;html=1;rounded=0;" edge="1" parent="1">
          <mxGeometry width="50" height="50" relative="1" as="geometry">
            <mxPoint x="780" y="1240" as="sourcePoint" />
            <mxPoint x="771" y="20" as="targetPoint" />
          </mxGeometry>
        </mxCell>
        <mxCell id="nwidlT_ggzvQzOjhjeut-26" value="" style="endArrow=none;html=1;rounded=0;" edge="1" parent="1">
          <mxGeometry width="50" height="50" relative="1" as="geometry">
            <mxPoint x="780" y="1240" as="sourcePoint" />
            <mxPoint x="150" y="1240" as="targetPoint" />
          </mxGeometry>
        </mxCell>
        <mxCell id="nwidlT_ggzvQzOjhjeut-27" value="" style="endArrow=none;html=1;rounded=0;" edge="1" parent="1">
          <mxGeometry width="50" height="50" relative="1" as="geometry">
            <mxPoint x="770" y="20" as="sourcePoint" />
            <mxPoint x="150" y="20" as="targetPoint" />
          </mxGeometry>
        </mxCell>
        <mxCell id="nwidlT_ggzvQzOjhjeut-29" value="return" style="html=1;verticalAlign=bottom;endArrow=open;dashed=1;endSize=8;rounded=0;" edge="1" parent="1">
          <mxGeometry relative="1" as="geometry">
            <mxPoint x="380" y="79.09000000000003" as="sourcePoint" />
            <mxPoint x="300" y="79.09000000000003" as="targetPoint" />
          </mxGeometry>
        </mxCell>
        <mxCell id="nwidlT_ggzvQzOjhjeut-30" value="return" style="html=1;verticalAlign=bottom;endArrow=open;dashed=1;endSize=8;rounded=0;exitX=1;exitY=0.5;exitDx=0;exitDy=0;entryX=1;entryY=0.5;entryDx=0;entryDy=0;" edge="1" parent="1" source="nwidlT_ggzvQzOjhjeut-10" target="nwidlT_ggzvQzOjhjeut-9">
          <mxGeometry relative="1" as="geometry">
            <mxPoint x="370" y="620" as="sourcePoint" />
            <mxPoint x="360" y="480" as="targetPoint" />
          </mxGeometry>
        </mxCell>
        <mxCell id="nwidlT_ggzvQzOjhjeut-31" value="return" style="html=1;verticalAlign=bottom;endArrow=open;dashed=1;endSize=8;rounded=0;exitX=1;exitY=0.5;exitDx=0;exitDy=0;entryX=1;entryY=0.5;entryDx=0;entryDy=0;" edge="1" parent="1">
          <mxGeometry relative="1" as="geometry">
            <mxPoint x="298.1799999999932" y="880" as="sourcePoint" />
            <mxPoint x="298.1799999999932" y="780" as="targetPoint" />
          </mxGeometry>
        </mxCell>
        <mxCell id="nwidlT_ggzvQzOjhjeut-32" value="return" style="html=1;verticalAlign=bottom;endArrow=open;dashed=1;endSize=8;rounded=0;exitX=1;exitY=0.5;exitDx=0;exitDy=0;entryX=1;entryY=0.5;entryDx=0;entryDy=0;" edge="1" parent="1" target="nwidlT_ggzvQzOjhjeut-14">
          <mxGeometry relative="1" as="geometry">
            <mxPoint x="379.999999999993" y="980" as="sourcePoint" />
            <mxPoint x="379.999999999993" y="880" as="targetPoint" />
          </mxGeometry>
        </mxCell>
        <mxCell id="nwidlT_ggzvQzOjhjeut-33" value="Invalid email or incorrect password" style="text;html=1;strokeColor=none;fillColor=none;align=center;verticalAlign=middle;whiteSpace=wrap;rounded=0;" vertex="1" parent="1">
          <mxGeometry x="410" y="65" width="60" height="30" as="geometry" />
        </mxCell>
        <mxCell id="nwidlT_ggzvQzOjhjeut-34" value="Send Notification" style="text;html=1;strokeColor=none;fillColor=none;align=center;verticalAlign=middle;whiteSpace=wrap;rounded=0;" vertex="1" parent="1">
          <mxGeometry x="660" y="65" width="60" height="30" as="geometry" />
        </mxCell>
        <mxCell id="nwidlT_ggzvQzOjhjeut-35" value="&lt;font style=&quot;font-size: 10px; line-height: 0.6;&quot;&gt;extension points, invalid email or incorrect password&lt;/font&gt;" style="text;html=1;strokeColor=none;fillColor=none;align=left;verticalAlign=middle;whiteSpace=wrap;rounded=0;strokeWidth=1;" vertex="1" parent="1">
          <mxGeometry x="210" y="65" width="60" height="30" as="geometry" />
        </mxCell>
        <mxCell id="nwidlT_ggzvQzOjhjeut-36" value="Manage Supplied" style="text;html=1;strokeColor=none;fillColor=none;align=center;verticalAlign=middle;whiteSpace=wrap;rounded=0;" vertex="1" parent="1">
          <mxGeometry x="205" y="170" width="60" height="30" as="geometry" />
        </mxCell>
        <mxCell id="nwidlT_ggzvQzOjhjeut-37" value="Update Profile" style="text;html=1;strokeColor=none;fillColor=none;align=center;verticalAlign=middle;whiteSpace=wrap;rounded=0;" vertex="1" parent="1">
          <mxGeometry x="205" y="265" width="60" height="30" as="geometry" />
        </mxCell>
        <mxCell id="nwidlT_ggzvQzOjhjeut-38" value="Check Notifications" style="text;html=1;strokeColor=none;fillColor=none;align=center;verticalAlign=middle;whiteSpace=wrap;rounded=0;" vertex="1" parent="1">
          <mxGeometry x="205" y="365" width="60" height="30" as="geometry" />
        </mxCell>
        <mxCell id="nwidlT_ggzvQzOjhjeut-39" value="View Invoices" style="text;html=1;strokeColor=none;fillColor=none;align=center;verticalAlign=middle;whiteSpace=wrap;rounded=0;" vertex="1" parent="1">
          <mxGeometry x="205" y="470" width="60" height="30" as="geometry" />
        </mxCell>
        <mxCell id="nwidlT_ggzvQzOjhjeut-40" value="Pay Supplier" style="text;html=1;strokeColor=none;fillColor=none;align=center;verticalAlign=middle;whiteSpace=wrap;rounded=0;" vertex="1" parent="1">
          <mxGeometry x="205" y="570" width="60" height="30" as="geometry" />
        </mxCell>
        <mxCell id="nwidlT_ggzvQzOjhjeut-41" value="Place Order" style="text;html=1;strokeColor=none;fillColor=none;align=center;verticalAlign=middle;whiteSpace=wrap;rounded=0;" vertex="1" parent="1">
          <mxGeometry x="205" y="665" width="60" height="30" as="geometry" />
        </mxCell>
        <mxCell id="nwidlT_ggzvQzOjhjeut-42" value="View Order" style="text;html=1;strokeColor=none;fillColor=none;align=center;verticalAlign=middle;whiteSpace=wrap;rounded=0;" vertex="1" parent="1">
          <mxGeometry x="206" y="771" width="60" height="30" as="geometry" />
        </mxCell>
        <mxCell id="nwidlT_ggzvQzOjhjeut-44" value="Manage Order" style="text;html=1;strokeColor=none;fillColor=none;align=center;verticalAlign=middle;whiteSpace=wrap;rounded=0;" vertex="1" parent="1">
          <mxGeometry x="206" y="870" width="60" height="30" as="geometry" />
        </mxCell>
        <mxCell id="nwidlT_ggzvQzOjhjeut-45" value="&lt;font style=&quot;font-size: 11px; line-height: 0.9;&quot;&gt;extension points check quality&lt;/font&gt;" style="text;html=1;strokeColor=none;fillColor=none;align=left;verticalAlign=middle;whiteSpace=wrap;rounded=0;" vertex="1" parent="1">
          <mxGeometry x="205" y="972" width="60" height="30" as="geometry" />
        </mxCell>
        <mxCell id="nwidlT_ggzvQzOjhjeut-47" value="Manage inventory manager" style="text;html=1;strokeColor=none;fillColor=none;align=center;verticalAlign=middle;whiteSpace=wrap;rounded=0;" vertex="1" parent="1">
          <mxGeometry x="205" y="1072" width="60" height="30" as="geometry" />
        </mxCell>
        <mxCell id="nwidlT_ggzvQzOjhjeut-48" value="Generate Report" style="text;html=1;strokeColor=none;fillColor=none;align=center;verticalAlign=middle;whiteSpace=wrap;rounded=0;" vertex="1" parent="1">
          <mxGeometry x="205" y="1165" width="60" height="30" as="geometry" />
        </mxCell>
        <mxCell id="nwidlT_ggzvQzOjhjeut-49" value="Check Quality" style="text;html=1;strokeColor=none;fillColor=none;align=center;verticalAlign=middle;whiteSpace=wrap;rounded=0;" vertex="1" parent="1">
          <mxGeometry x="400" y="972" width="60" height="30" as="geometry" />
        </mxCell>
        <mxCell id="nwidlT_ggzvQzOjhjeut-50" value="Raise Invoice" style="text;html=1;strokeColor=none;fillColor=none;align=center;verticalAlign=middle;whiteSpace=wrap;rounded=0;" vertex="1" parent="1">
          <mxGeometry x="620" y="500" width="60" height="30" as="geometry" />
        </mxCell>
        <mxCell id="nwidlT_ggzvQzOjhjeut-51" value="Send Stocck" style="text;html=1;strokeColor=none;fillColor=none;align=center;verticalAlign=middle;whiteSpace=wrap;rounded=0;" vertex="1" parent="1">
          <mxGeometry x="620" y="595" width="60" height="30" as="geometry" />
        </mxCell>
        <mxCell id="nwidlT_ggzvQzOjhjeut-52" value="Receive return stock" style="text;html=1;strokeColor=none;fillColor=none;align=center;verticalAlign=middle;whiteSpace=wrap;rounded=0;" vertex="1" parent="1">
          <mxGeometry x="620" y="695" width="60" height="30" as="geometry" />
        </mxCell>
        <mxCell id="nwidlT_ggzvQzOjhjeut-53" value="" style="endArrow=none;html=1;rounded=0;fontSize=11;" edge="1" parent="1">
          <mxGeometry width="50" height="50" relative="1" as="geometry">
            <mxPoint x="48" y="1190" as="sourcePoint" />
            <mxPoint x="48" y="80" as="targetPoint" />
          </mxGeometry>
        </mxCell>
        <mxCell id="nwidlT_ggzvQzOjhjeut-54" value="" style="endArrow=none;html=1;rounded=0;fontSize=11;entryX=0;entryY=0.5;entryDx=0;entryDy=0;exitX=0.331;exitY=0.71;exitDx=0;exitDy=0;exitPerimeter=0;" edge="1" parent="1" source="nwidlT_ggzvQzOjhjeut-2" target="nwidlT_ggzvQzOjhjeut-1">
          <mxGeometry width="50" height="50" relative="1" as="geometry">
            <mxPoint x="69" y="80" as="sourcePoint" />
            <mxPoint x="119" y="30" as="targetPoint" />
          </mxGeometry>
        </mxCell>
        <mxCell id="nwidlT_ggzvQzOjhjeut-55" value="" style="endArrow=none;html=1;rounded=0;fontSize=11;entryX=0;entryY=0.5;entryDx=0;entryDy=0;" edge="1" parent="1" target="nwidlT_ggzvQzOjhjeut-6">
          <mxGeometry width="50" height="50" relative="1" as="geometry">
            <mxPoint x="43.5" y="170" as="sourcePoint" />
            <mxPoint x="144.5" y="170" as="targetPoint" />
          </mxGeometry>
        </mxCell>
        <mxCell id="nwidlT_ggzvQzOjhjeut-56" value="" style="endArrow=none;html=1;rounded=0;fontSize=11;entryX=0;entryY=0.5;entryDx=0;entryDy=0;" edge="1" parent="1">
          <mxGeometry width="50" height="50" relative="1" as="geometry">
            <mxPoint x="50" y="265" as="sourcePoint" />
            <mxPoint x="186.50000000000728" y="275" as="targetPoint" />
          </mxGeometry>
        </mxCell>
        <mxCell id="nwidlT_ggzvQzOjhjeut-57" value="" style="endArrow=none;html=1;rounded=0;fontSize=11;entryX=0;entryY=0.5;entryDx=0;entryDy=0;" edge="1" parent="1">
          <mxGeometry width="50" height="50" relative="1" as="geometry">
            <mxPoint x="50" y="365" as="sourcePoint" />
            <mxPoint x="186.50000000000728" y="375" as="targetPoint" />
          </mxGeometry>
        </mxCell>
        <mxCell id="nwidlT_ggzvQzOjhjeut-58" value="" style="endArrow=none;html=1;rounded=0;fontSize=11;entryX=0;entryY=0.5;entryDx=0;entryDy=0;" edge="1" parent="1">
          <mxGeometry width="50" height="50" relative="1" as="geometry">
            <mxPoint x="50" y="460" as="sourcePoint" />
            <mxPoint x="186.50000000000728" y="470" as="targetPoint" />
          </mxGeometry>
        </mxCell>
        <mxCell id="nwidlT_ggzvQzOjhjeut-59" value="" style="endArrow=none;html=1;rounded=0;fontSize=11;entryX=0;entryY=0.5;entryDx=0;entryDy=0;" edge="1" parent="1">
          <mxGeometry width="50" height="50" relative="1" as="geometry">
            <mxPoint x="43.5" y="560" as="sourcePoint" />
            <mxPoint x="180.00000000000728" y="570" as="targetPoint" />
          </mxGeometry>
        </mxCell>
        <mxCell id="nwidlT_ggzvQzOjhjeut-64" value="" style="endArrow=none;html=1;rounded=0;fontSize=11;entryX=0;entryY=0.5;entryDx=0;entryDy=0;" edge="1" parent="1">
          <mxGeometry width="50" height="50" relative="1" as="geometry">
            <mxPoint x="43.5" y="1062" as="sourcePoint" />
            <mxPoint x="180.00000000000728" y="1072" as="targetPoint" />
          </mxGeometry>
        </mxCell>
        <mxCell id="nwidlT_ggzvQzOjhjeut-65" value="" style="endArrow=none;html=1;rounded=0;fontSize=11;entryX=0;entryY=0.5;entryDx=0;entryDy=0;" edge="1" parent="1">
          <mxGeometry width="50" height="50" relative="1" as="geometry">
            <mxPoint x="43.5" y="1185" as="sourcePoint" />
            <mxPoint x="180.00000000000728" y="1195" as="targetPoint" />
          </mxGeometry>
        </mxCell>
        <mxCell id="nwidlT_ggzvQzOjhjeut-70" value="" style="endArrow=none;html=1;rounded=0;fontSize=11;" edge="1" parent="1">
          <mxGeometry width="50" height="50" relative="1" as="geometry">
            <mxPoint x="109" y="1130" as="sourcePoint" />
            <mxPoint x="99" y="130" as="targetPoint" />
          </mxGeometry>
        </mxCell>
        <mxCell id="nwidlT_ggzvQzOjhjeut-71" value="" style="endArrow=none;html=1;rounded=0;fontSize=11;entryX=0;entryY=0.5;entryDx=0;entryDy=0;" edge="1" parent="1" target="nwidlT_ggzvQzOjhjeut-16">
          <mxGeometry width="50" height="50" relative="1" as="geometry">
            <mxPoint x="110" y="1130" as="sourcePoint" />
            <mxPoint x="246.50000000000728" y="1140" as="targetPoint" />
          </mxGeometry>
        </mxCell>
        <mxCell id="nwidlT_ggzvQzOjhjeut-74" value="" style="endArrow=none;html=1;rounded=0;fontSize=11;entryX=0;entryY=0.5;entryDx=0;entryDy=0;" edge="1" parent="1">
          <mxGeometry width="50" height="50" relative="1" as="geometry">
            <mxPoint x="100" y="1002" as="sourcePoint" />
            <mxPoint x="190.00000000000728" y="979" as="targetPoint" />
          </mxGeometry>
        </mxCell>
        <mxCell id="nwidlT_ggzvQzOjhjeut-75" value="" style="endArrow=none;html=1;rounded=0;fontSize=11;entryX=0;entryY=0.5;entryDx=0;entryDy=0;" edge="1" parent="1">
          <mxGeometry width="50" height="50" relative="1" as="geometry">
            <mxPoint x="100" y="923" as="sourcePoint" />
            <mxPoint x="190.00000000000728" y="900" as="targetPoint" />
          </mxGeometry>
        </mxCell>
        <mxCell id="nwidlT_ggzvQzOjhjeut-76" value="" style="endArrow=none;html=1;rounded=0;fontSize=11;entryX=0;entryY=0.5;entryDx=0;entryDy=0;" edge="1" parent="1">
          <mxGeometry width="50" height="50" relative="1" as="geometry">
            <mxPoint x="100" y="824" as="sourcePoint" />
            <mxPoint x="190.00000000000728" y="801" as="targetPoint" />
          </mxGeometry>
        </mxCell>
        <mxCell id="nwidlT_ggzvQzOjhjeut-77" value="" style="endArrow=none;html=1;rounded=0;fontSize=11;entryX=0;entryY=0.5;entryDx=0;entryDy=0;" edge="1" parent="1">
          <mxGeometry width="50" height="50" relative="1" as="geometry">
            <mxPoint x="100" y="725" as="sourcePoint" />
            <mxPoint x="190.00000000000728" y="702" as="targetPoint" />
          </mxGeometry>
        </mxCell>
        <mxCell id="nwidlT_ggzvQzOjhjeut-78" value="" style="endArrow=none;html=1;rounded=0;fontSize=11;entryX=0;entryY=0.5;entryDx=0;entryDy=0;" edge="1" parent="1">
          <mxGeometry width="50" height="50" relative="1" as="geometry">
            <mxPoint x="90" y="418" as="sourcePoint" />
            <mxPoint x="180.00000000000728" y="394.9999999999998" as="targetPoint" />
          </mxGeometry>
        </mxCell>
        <mxCell id="nwidlT_ggzvQzOjhjeut-79" value="" style="endArrow=none;html=1;rounded=0;fontSize=11;entryX=0;entryY=0.5;entryDx=0;entryDy=0;" edge="1" parent="1">
          <mxGeometry width="50" height="50" relative="1" as="geometry">
            <mxPoint x="90" y="318" as="sourcePoint" />
            <mxPoint x="180.00000000000728" y="294.9999999999998" as="targetPoint" />
          </mxGeometry>
        </mxCell>
        <mxCell id="nwidlT_ggzvQzOjhjeut-80" value="" style="endArrow=none;html=1;rounded=0;fontSize=11;entryX=0;entryY=0.5;entryDx=0;entryDy=0;" edge="1" parent="1">
          <mxGeometry width="50" height="50" relative="1" as="geometry">
            <mxPoint x="100" y="133" as="sourcePoint" />
            <mxPoint x="190.00000000000728" y="109.99999999999977" as="targetPoint" />
          </mxGeometry>
        </mxCell>
        <mxCell id="nwidlT_ggzvQzOjhjeut-81" value="" style="endArrow=none;html=1;rounded=0;fontSize=11;" edge="1" parent="1">
          <mxGeometry width="50" height="50" relative="1" as="geometry">
            <mxPoint x="750" y="81.5" as="sourcePoint" />
            <mxPoint x="850" y="82" as="targetPoint" />
          </mxGeometry>
        </mxCell>
        <mxCell id="nwidlT_ggzvQzOjhjeut-83" value="" style="endArrow=none;html=1;rounded=0;fontSize=11;" edge="1" parent="1">
          <mxGeometry width="50" height="50" relative="1" as="geometry">
            <mxPoint x="858" y="1090" as="sourcePoint" />
            <mxPoint x="848" y="180" as="targetPoint" />
          </mxGeometry>
        </mxCell>
        <mxCell id="nwidlT_ggzvQzOjhjeut-84" value="" style="endArrow=none;html=1;rounded=0;fontSize=11;" edge="1" parent="1">
          <mxGeometry width="50" height="50" relative="1" as="geometry">
            <mxPoint x="850" y="190" as="sourcePoint" />
            <mxPoint x="290" y="102" as="targetPoint" />
          </mxGeometry>
        </mxCell>
        <mxCell id="nwidlT_ggzvQzOjhjeut-85" value="" style="endArrow=none;html=1;rounded=0;fontSize=11;" edge="1" parent="1">
          <mxGeometry width="50" height="50" relative="1" as="geometry">
            <mxPoint x="850" y="360" as="sourcePoint" />
            <mxPoint x="300" y="277" as="targetPoint" />
          </mxGeometry>
        </mxCell>
        <mxCell id="nwidlT_ggzvQzOjhjeut-86" value="" style="endArrow=none;html=1;rounded=0;fontSize=11;" edge="1" parent="1">
          <mxGeometry width="50" height="50" relative="1" as="geometry">
            <mxPoint x="850" y="470" as="sourcePoint" />
            <mxPoint x="300" y="387" as="targetPoint" />
          </mxGeometry>
        </mxCell>
        <mxCell id="nwidlT_ggzvQzOjhjeut-87" value="" style="endArrow=none;html=1;rounded=0;fontSize=11;" edge="1" parent="1">
          <mxGeometry width="50" height="50" relative="1" as="geometry">
            <mxPoint x="840" y="470" as="sourcePoint" />
            <mxPoint x="300" y="480" as="targetPoint" />
          </mxGeometry>
        </mxCell>
        <mxCell id="nwidlT_ggzvQzOjhjeut-88" value="" style="endArrow=none;html=1;rounded=0;fontSize=11;" edge="1" parent="1">
          <mxGeometry width="50" height="50" relative="1" as="geometry">
            <mxPoint x="850" y="771" as="sourcePoint" />
            <mxPoint x="300" y="781" as="targetPoint" />
          </mxGeometry>
        </mxCell>
        <mxCell id="nwidlT_ggzvQzOjhjeut-89" value="" style="endArrow=none;html=1;rounded=0;fontSize=11;entryX=0;entryY=0.5;entryDx=0;entryDy=0;" edge="1" parent="1">
          <mxGeometry width="50" height="50" relative="1" as="geometry">
            <mxPoint x="713" y="520" as="sourcePoint" />
            <mxPoint x="849.5000000000073" y="530" as="targetPoint" />
          </mxGeometry>
        </mxCell>
        <mxCell id="nwidlT_ggzvQzOjhjeut-90" value="" style="endArrow=none;html=1;rounded=0;fontSize=11;entryX=0;entryY=0.5;entryDx=0;entryDy=0;" edge="1" parent="1">
          <mxGeometry width="50" height="50" relative="1" as="geometry">
            <mxPoint x="710" y="610" as="sourcePoint" />
            <mxPoint x="846.5000000000073" y="620" as="targetPoint" />
          </mxGeometry>
        </mxCell>
        <mxCell id="nwidlT_ggzvQzOjhjeut-91" value="" style="endArrow=none;html=1;rounded=0;fontSize=11;entryX=0;entryY=0.5;entryDx=0;entryDy=0;" edge="1" parent="1">
          <mxGeometry width="50" height="50" relative="1" as="geometry">
            <mxPoint x="713" y="725" as="sourcePoint" />
            <mxPoint x="849.5000000000073" y="735" as="targetPoint" />
          </mxGeometry>
        </mxCell>
        <mxCell id="nwidlT_ggzvQzOjhjeut-92" value="" style="endArrow=none;html=1;rounded=0;fontSize=11;" edge="1" parent="1">
          <mxGeometry width="50" height="50" relative="1" as="geometry">
            <mxPoint x="860" y="1090" as="sourcePoint" />
            <mxPoint x="300" y="1185" as="targetPoint" />
          </mxGeometry>
        </mxCell>
      </root>
    </mxGraphModel>
  </diagram>
</mxfile>
